{
  "asset": { "version": "2.0" },
  "buffers": [{ "uri": "buffers/triangle.bin", "byteLength": 36 }],
  "bufferViews": [{ "buffer": 0, "byteOffset": 0, "byteLength": 36 }],
  "accessors": [
    {
      "bufferView": 0,
      "componentType": 5126,
      "count": 3,
      "type": "VEC3",
      "min": [0, 0, 0],
      "max": [0.01, 0.02, 0.03]
    }
  ],
  "meshes": [{ "primitives": [{ "attributes": { "POSITION": 0 } }] }],
  "nodes": [{ "mesh": 0 }],
  "scenes": [{ "nodes": [0] }],
  "scene": 0
}
